PathFileType	4	(X/Y/Z)	C:\Users\Basilio\Documents\Thesis Gigler\squatting_fais\c3dfiles\044\SLS_front_pre2\markers_experimental.trc
DataRate	CameraRate	NumFrames	NumMarkers	Units	OrigDataRate	OrigDataStartFrame	OrigNumFrames
200.000000	200.000000	4	60	mm	200.000000	202	1620
Frame#	Time	FHD			LBHD			RBHD			C7			T10			CLAV			LSHO			LUUPA			LMUPA			LDUPA			LLEP			LMEP			LRAD			LRFIN			RSHO			RUPA1			RMUPA			RDUPA			RLEP			RMEP			RUL			LASI			RASI			USACR			LSACR			RSACR			LTHI1			LTHI2			LTHI3			LTHI4			LLFC			LMFC			LTIB1			LTIB2			LTIB3			LTIB4			LLMAL			LMMAL			LHEE			LMT1			LMT2			LMT5			RTHI			RTHI2			RTHI3			RTHI4			RLFC			RMFC			RTIB1			RTIB2			RTIB3			RTIB4			RLMAL			RMMAL			RHEE			RMT1			RMT2			RMT5			RUFIN			LUL			
		X1	Y1	Z1	X2	Y2	Z2	X3	Y3	Z3	X4	Y4	Z4	X5	Y5	Z5	X6	Y6	Z6	X7	Y7	Z7	X8	Y8	Z8	X9	Y9	Z9	X10	Y10	Z10	X11	Y11	Z11	X12	Y12	Z12	X13	Y13	Z13	X14	Y14	Z14	X15	Y15	Z15	X16	Y16	Z16	X17	Y17	Z17	X18	Y18	Z18	X19	Y19	Z19	X20	Y20	Z20	X21	Y21	Z21	X22	Y22	Z22	X23	Y23	Z23	X24	Y24	Z24	X25	Y25	Z25	X26	Y26	Z26	X27	Y27	Z27	X28	Y28	Z28	X29	Y29	Z29	X30	Y30	Z30	X31	Y31	Z31	X32	Y32	Z32	X33	Y33	Z33	X34	Y34	Z34	X35	Y35	Z35	X36	Y36	Z36	X37	Y37	Z37	X38	Y38	Z38	X39	Y39	Z39	X40	Y40	Z40	X41	Y41	Z41	X42	Y42	Z42	X43	Y43	Z43	X44	Y44	Z44	X45	Y45	Z45	X46	Y46	Z46	X47	Y47	Z47	X48	Y48	Z48	X49	Y49	Z49	X50	Y50	Z50	X51	Y51	Z51	X52	Y52	Z52	X53	Y53	Z53	X54	Y54	Z54	X55	Y55	Z55	X56	Y56	Z56	X57	Y57	Z57	X58	Y58	Z58	X59	Y59	Z59	X60	Y60	Z60	

203	1.01	-224.5174865722657	1796.135864257813	-948.5190429687502	-363.6401367187501	1761.888549804688	-1013.872802734375	-394.9512329101564	1752.386962890625	-850.1611938476565	-420.3566284179689	1565.392333984375	-935.5811157226565	-398.6956481933595	1259.952270507813	-926.778259277344	-277.4013061523438	1540.860473632813	-935.3604736328127	-325.4253845214844	1589.255004882813	-1081.61962890625	-154.963134765625	1560.488037109375	-1169.323974609375	-130.9687042236328	1570.998901367188	-1125.767333984375	-86.59580230712892	1552.994018554688	-1165.174072265625	-29.52829742431641	1550.387939453125	-1151.517333984375	-43.04650878906251	1475.30908203125	-1135.844970703125	219.576156616211	1557.014892578125	-1027.780395507813	236.9464416503907	1573.256225585938	-926.792419433594	-334.6433105468751	1577.035522460938	-774.3342895507815	-176.0718383789063	1544.139282226563	-677.9223022460939	-146.9377899169922	1561.38623046875	-716.1860351562501	-105.9535446166992	1542.083740234375	-675.3622436523439	-45.42221832275391	1544.325561523438	-685.8665161132814	-50.25891494750978	1465.282348632813	-703.6840820312501	214.6486816406251	1557.826049804688	-795.6452636718752	-201.0727844238282	1079.116455078125	-1028.308349609375	-198.2191925048829	1064.45458984375	-810.108581542969	-372.8014221191407	1116.953857421875	-914.102478027344	-376.2841796875001	1084.135986328125	-940.3494873046877	-374.6859130859376	1086.756103515625	-882.6580810546877	-300.8954162597657	839.940612792969	-1099.80419921875	-269.6892700195313	761.7379150390626	-1096.750244140625	-222.2359008789063	763.0855712890626	-1088.7197265625	-299.4609985351563	709.9560546875001	-1084.388671875	-290.1744384765626	549.5803833007814	-1069.6689453125	-283.1221923828126	543.7376708984376	-947.4843750000002	-274.2740783691407	372.6130065917969	-999.1065673828127	-299.4071655273438	327.5937194824219	-1071.514404296875	-270.7009887695313	325.0139770507813	-1034.266357421875	-288.8476562500001	247.4859771728516	-1006.237243652344	-343.1987915039063	133.1490325927735	-1054.5	-323.4179992675782	138.1322784423828	-970.3205566406252	-407.638397216797	111.0356369018555	-1006.725158691406	-202.3146972656251	62.01859283447267	-984.9756469726565	-199.9254913330079	63.16442489624025	-1030.807495117188	-237.9745330810547	51.93846893310548	-1078.544555664063	-289.5660095214844	793.9495239257815	-730.8187866210939	-247.7826538085938	740.3233642578126	-728.9537353515626	-215.7936401367188	743.1362915039064	-734.6471557617189	-271.0445556640626	660.0296020507814	-741.9616088867189	-270.5900878906251	545.3625488281251	-745.2504272460939	-284.5815124511719	536.7801513671876	-868.3982543945315	-240.9226989746094	412.5657043457032	-771.6704101562502	-312.2102966308594	351.2033691406251	-714.2402343750001	-273.4185180664063	339.1480407714844	-736.1885986328126	-272.2743835449219	286.7452697753907	-761.2028198242189	-350.6072998046876	142.084716796875	-733.4197387695314	-339.9836425781251	146.6068420410157	-817.1379394531252	-416.546356201172	115.5013046264649	-769.7600097656252	-216.9945068359376	68.13020324707033	-817.291442871094	-207.3008880615235	61.6852378845215	-781.5726318359377	-240.3764038085938	47.6245460510254	-725.1182861328126	232.9288177490235	1544.13525390625	-908.2749023437502	207.5892791748047	1508.311401367188	-977.5090942382815	
204	1.015	-224.3463745117188	1796.28564453125	-949.4590454101565	-363.7297668457032	1761.891357421875	-1014.891723632813	-394.9660034179689	1752.672119140625	-851.5482177734377	-420.208465576172	1565.626586914063	-936.663757324219	-398.9604797363282	1260.148315429688	-927.735534667969	-276.9642639160157	1540.915283203125	-936.5776367187502	-325.0953979492188	1589.228637695313	-1082.663696289063	-153.87890625	1560.728637695313	-1171.195434570313	-130.8958435058594	1570.88330078125	-1126.638427734375	-86.94114685058595	1552.857421875	-1165.793579101563	-29.67883300781251	1550.319458007813	-1152.378173828125	-43.12039184570313	1475.358520507813	-1136.727172851563	219.9234161376954	1556.235473632813	-1028.36865234375	237.0223236083985	1572.928100585938	-927.6853027343752	-334.7469482421876	1576.899536132813	-775.213073730469	-176.3685760498047	1544.482055664063	-679.3261718750001	-147.0282287597657	1561.376586914063	-717.0970458984376	-106.0231704711914	1542.084106445313	-676.3410034179689	-45.54098129272462	1544.279296875	-686.7747802734376	-50.29256057739259	1465.158935546875	-704.4392700195314	214.6015014648438	1557.5439453125	-796.4002075195315	-203.4059753417969	1078.539672851563	-1027.864624023438	-198.4796752929688	1064.610595703125	-810.9425048828127	-373.0830688476563	1117.010009765625	-914.9860839843752	-376.5003967285157	1084.298583984375	-941.4431152343752	-374.9328918457032	1086.649169921875	-883.5773925781252	-300.8648071289063	839.8887939453127	-1100.515258789063	-269.7096862792969	761.6223754882814	-1097.446899414063	-222.3513488769532	762.9681396484376	-1089.263061523438	-299.5445861816407	709.9177856445314	-1084.914672851563	-290.1750183105469	549.4881591796876	-1070.145751953125	-282.9888916015626	543.5279541015626	-947.762878417969	-274.4023132324219	372.6154479980469	-999.3293457031252	-299.7650451660157	327.0296936035157	-1071.821044921875	-270.6231384277344	324.9157104492188	-1034.40478515625	-288.8050537109376	247.2886047363282	-1006.311645507813	-343.2641601562501	133.1504516601563	-1054.571899414063	-323.5011596679688	138.1430053710938	-970.371520996094	-408.0838623046876	111.5006790161133	-1006.323486328125	-202.2832336425782	62.02161026000978	-985.0049438476565	-200.0036315917969	63.23896408081056	-1030.830200195313	-238.0469360351563	51.919246673584	-1078.511474609375	-289.8706665039063	793.9934692382815	-731.4236450195314	-248.2453613281251	740.7097778320314	-730.1471557617189	-215.9645080566407	743.3665771484376	-735.2927856445314	-271.2699279785157	660.1505737304689	-742.4621582031251	-270.8252258300782	545.7883911132814	-745.8186645507814	-284.7117919921876	536.7669677734376	-868.695983886719	-241.0687103271485	412.6111755371095	-771.8440551757815	-312.3164672851563	351.2601623535157	-714.5662231445314	-273.4258728027344	339.2606506347657	-736.3511962890626	-272.2845458984376	286.8689880371094	-761.3791503906251	-350.5788269042969	142.2007598876953	-733.4656982421876	-339.8844604492188	146.6681365966797	-817.1265258789065	-416.5422668457032	115.5433044433594	-769.7445068359377	-216.9742279052735	68.0880813598633	-817.2700195312502	-207.3088073730469	61.69810867309572	-781.5791625976565	-240.3644561767579	47.6020622253418	-725.1065673828126	232.855697631836	1543.918090820313	-909.0805664062502	207.2773742675782	1508.112915039063	-978.3642578125002	
205	1.02	-224.3916625976563	1796.337524414063	-950.179626464844	-363.7133483886719	1761.917602539063	-1015.9541015625	-395.0532531738282	1752.652099609375	-852.5565185546877	-420.2667236328126	1565.595825195313	-937.5692138671877	-399.1393432617189	1260.4091796875	-928.8367309570315	-277.1209716796876	1540.862060546875	-937.4154052734377	-325.1105651855469	1589.324951171875	-1083.4892578125	-155.1260223388672	1560.3193359375	-1170.937377929688	-130.8023071289063	1570.82275390625	-1127.646118164063	-86.71218872070314	1552.776000976563	-1166.780517578125	-29.55414009094239	1550.190063476563	-1153.314086914063	-43.10737609863282	1475.0947265625	-1137.506713867188	219.8070678710938	1556.27587890625	-1029.286987304688	237.1067962646485	1572.775268554688	-928.566833496094	-334.7937927246094	1577.0556640625	-776.353942871094	-176.0119323730469	1544.0791015625	-679.8296508789064	-147.0534820556641	1561.476318359375	-718.2127685546876	-106.1351470947266	1542.19287109375	-677.2346801757814	-45.69820785522462	1544.137817382813	-687.8058471679689	-50.57000732421876	1465.10498046875	-705.2536010742189	214.6952819824219	1557.427490234375	-797.172790527344	-203.4817047119141	1078.537109375	-1028.684936523438	-198.8167114257813	1064.726196289063	-811.6157226562502	-373.2993774414063	1116.84228515625	-915.8975219726565	-376.9318847656251	1084.43310546875	-942.195251464844	-375.3845214843751	1086.765014648438	-884.5360107421877	-300.9867858886719	839.821228027344	-1101.003662109375	-269.8005676269532	761.3853149414064	-1098.2060546875	-222.4786376953126	762.9684448242189	-1089.8095703125	-299.5886535644532	709.7963867187501	-1085.458251953125	-290.1952819824219	549.4078979492189	-1070.576782226563	-283.2353210449219	543.5434570312501	-948.2647705078127	-274.4585266113282	372.5894470214844	-999.5205078125002	-299.2821655273438	327.2890930175782	-1071.9736328125	-270.6641540527344	324.8189697265626	-1034.540771484375	-288.8024902343751	247.2426452636719	-1006.447937011719	-343.1924743652344	133.0804901123047	-1054.614379882813	-323.5257263183594	138.0701293945313	-970.4582519531252	-408.049530029297	111.3995361328125	-1006.421691894531	-202.3111724853516	62.0581741333008	-984.9902954101565	-199.9848327636719	63.24525070190431	-1030.85693359375	-238.0022888183594	51.87632369995119	-1078.597900390625	-290.1868591308594	794.0937500000002	-731.9662475585939	-248.4556732177735	740.8485717773439	-730.5686645507814	-216.3031921386719	743.4727783203126	-735.6937866210939	-271.3194580078126	660.2004394531251	-742.8045654296876	-270.9828796386719	545.9479980468751	-746.1802978515626	-284.8090209960938	536.7266235351564	-869.0655517578127	-241.092269897461	412.8328857421876	-772.0700683593752	-312.4416198730469	351.3475341796876	-714.7480468750001	-273.5354919433594	339.2950134277344	-736.4949340820314	-272.3731384277344	287.0884094238282	-761.4359130859376	-350.6246032714844	142.232177734375	-733.4752197265626	-339.8469848632813	146.6849670410157	-817.1213989257815	-416.5380859375001	115.5862274169922	-769.7386474609377	-217.0059509277344	68.12915039062501	-817.2502441406252	-207.3269195556641	61.71097946166994	-781.540222167969	-240.3289031982422	47.59791946411134	-725.0781250000001	232.7787780761719	1543.695068359375	-909.8804931640627	207.354721069336	1507.932495117188	-979.056579589844	
206	1.025	-223.9626617431641	1796.199584960938	-951.3108520507815	-363.6932373046876	1761.8798828125	-1017.051818847656	-395.1844482421876	1752.646362304688	-853.6465454101565	-420.2155151367189	1565.785766601563	-938.558532714844	-399.4196166992189	1260.112426757813	-929.6724243164065	-277.4255065917969	1540.767822265625	-938.1841430664065	-325.1067199707032	1589.341064453125	-1084.417358398438	-154.8670501708985	1560.216186523438	-1171.970092773438	-130.787826538086	1570.723022460938	-1128.557250976563	-86.49070739746095	1552.823852539063	-1167.9150390625	-29.54224205017091	1550.039306640625	-1154.117797851563	-43.14824676513673	1474.945068359375	-1138.515258789063	219.9778594970704	1556.035034179688	-1030.046264648438	237.2142944335938	1572.38916015625	-929.2608032226565	-334.8453674316407	1577.097045898438	-777.2374267578127	-176.2947387695313	1544.209594726563	-680.9335937500001	-147.3157196044922	1561.464599609375	-719.0406494140626	-106.3131179809571	1542.20166015625	-677.9494018554689	-45.83531951904298	1544.139526367188	-688.5321655273439	-50.92771530151369	1465.176391601563	-706.1469116210939	214.6035919189454	1557.30859375	-798.0485839843752	-203.4979095458985	1078.489501953125	-1029.666137695313	-199.2710876464844	1064.847900390625	-812.263366699219	-373.5594787597657	1116.937133789063	-916.7436523437502	-377.1988830566407	1084.277465820313	-943.0003662109377	-375.7903747558594	1086.926879882813	-885.3765258789065	-301.1030578613282	839.7002563476565	-1101.651123046875	-269.9826354980469	761.2902832031251	-1098.653442382813	-222.6615600585938	762.8727416992189	-1090.278930664063	-299.6914978027344	709.5870971679689	-1086.061401367188	-290.0521850585938	549.3474731445314	-1071.009155273438	-283.4764404296876	543.6966552734376	-948.8039550781252	-274.5932922363282	372.4961853027344	-999.716247558594	-299.3078613281251	327.1473388671876	-1072.163330078125	-270.6787414550782	324.7958068847657	-1034.685424804688	-288.8417053222657	247.2128906250001	-1006.580383300781	-343.2282104492188	133.0263824462891	-1054.7119140625	-323.5355834960938	138.0841064453125	-970.508483886719	-407.6829833984376	110.9181442260742	-1006.782470703125	-202.3144683837891	62.01498031616212	-985.0193481445315	-200.0531768798829	63.25626754760744	-1030.865356445313	-237.9899139404297	51.90506744384767	-1078.474243164063	-290.5235900878907	794.2763671875002	-732.3815307617189	-248.4647521972657	740.7232666015626	-730.4897460937501	-216.4802398681641	743.5550537109376	-736.1148071289064	-271.5208129882813	660.3355712890626	-743.2352294921876	-271.0852050781251	546.0076904296876	-746.5019531250001	-284.8653564453126	536.6870727539064	-869.3872680664065	-241.0879669189454	412.9388427734376	-772.2371826171877	-312.4714660644532	351.3342895507813	-714.9475097656251	-273.7139282226563	339.2983093261719	-736.7330322265626	-272.4241638183594	287.1783752441407	-761.5902099609376	-350.8905029296876	142.7309875488282	-734.0562133789064	-339.7969360351563	146.6929931640625	-817.1177978515627	-416.526824951172	115.6626434326172	-769.7346801757815	-216.959213256836	68.13722229003908	-817.241394042969	-207.2489166259766	61.6277313232422	-781.5408935546877	-240.3587646484376	47.58162689208985	-725.1054077148439	232.7102508544922	1543.469482421875	-910.6721191406252	207.5093231201172	1507.934936523438	-979.893981933594	
